# xmcd
#
# Track frame offsets:
#	150
#	14436
#	31642
#	44724
#	62826
#	76201
#	91983
#	109995
#	121677
#	140290
#	158210
#	174368
#
# Disc length: 2525 seconds
#
# Revision: 1
# Processed by: cddbd v1.5.2PL0 Copyright (c) Steve Scherf et al.
# Submitted via: audiograbber 1.83.01
#
DISCID=9109db0c
DTITLE=TammRae Keener - A Good Old Country Girl
DYEAR=2013
DGENRE=Country
TTITLE0=Southern blood
TTITLE1=Share all my feelings new
TTITLE2=Good ole country girl
TTITLE3=Take time
TTITLE4=Your love tears me apart
TTITLE5=Blood upon his shoe
TTITLE6=Because of you new
TTITLE7=That girl in Tennessee
TTITLE8=You will never
TTITLE9=Fiddle and steel guitar
TTITLE10=Before We Go To Bed 
TTITLE11=My Daddy and Me
EXTD=
EXTT0=
EXTT1=
EXTT2=
EXTT3=
EXTT4=
EXTT5=
EXTT6=
EXTT7=
EXTT8=
EXTT9=
EXTT10=
EXTT11=
PLAYORDER=
